<?xml version="1.0" encoding="UTF-8"?>
<svg id="Layer_1" data-name="Layer 1" xmlns="http://www.w3.org/2000/svg" viewBox="0 0 900 300">
  <defs>
    <style>
      .cls-1 {
        fill: #fff;
      }
    </style>
  </defs>
  <path class="cls-1" d="M254.57,60.24h-41.04l-40.68,45.53c-2.92,3.27-1.86,7.19,1.94,7.19h32.47c4.41,0,4.9,5.1.8,8.24l-23.36,17.92-61.92,47.49-27,20.71,18.5-20.71,36-40.3c2.92-3.27,1.86-7.19-1.94-7.19h-33.39c-3.8,0-4.86-3.92-1.94-7.19l16.95-18.97,47.11-52.73h-85.28c-11.44,0-23.89,9.01-27.8,20.12l-30.36,86.13c-3.92,11.11,2.18,20.12,13.61,20.12h38.52l-18.09,51.31,1.54-.87,88.98-50.44h51.81c11.44,0,23.89-9.01,27.8-20.12l30.36-86.13c3.92-11.11-2.18-20.12-13.61-20.12Z"/>
  <g>
    <path class="cls-1" d="M350.71,138.47c-2.75,16.96-19.09,24.98-39.66,24.98h-41.48l28.67-79.13h38.21c17.07,0,25.52,6.44,23.63,18.09-1.62,9.95-8.48,16.73-17.42,20.23,6.23,2.71,9.32,8.03,8.06,15.83ZM332.54,138.24c.96-5.88-3.31-8.14-10.55-8.14h-22.16l-7.02,19.56h21.59c10.06,0,16.9-3.84,18.13-11.42ZM311.37,98.11l-6.76,18.65h18.65c9.5,0,15.88-3.84,17.08-11.19.84-5.2-3.08-7.46-10.43-7.46h-18.54Z"/>
    <path class="cls-1" d="M360.3,137.11c3.29-20.23,21.12-35.38,42.48-35.38,18.65,0,28.89,10.74,26.21,27.24-3.29,20.23-21.01,35.38-42.48,35.38-18.54,0-28.87-10.85-26.21-27.24ZM411.01,129.77c1.34-8.25-2.79-13.45-11.61-13.45-10.4,0-19.18,8.14-21.11,20.01-1.34,8.25,2.9,13.45,11.72,13.45,10.29,0,19.07-8.14,21-20.01Z"/>
    <path class="cls-1" d="M434.23,137.11c3.29-20.23,21.12-35.38,42.48-35.38,18.65,0,28.89,10.74,26.21,27.24-3.29,20.23-21.01,35.38-42.48,35.38-18.54,0-28.87-10.85-26.21-27.24ZM484.93,129.77c1.34-8.25-2.79-13.45-11.61-13.45-10.4,0-19.18,8.14-21.11,20.01-1.34,8.25,2.9,13.45,11.72,13.45,10.29,0,19.07-8.14,21-20.01Z"/>
    <path class="cls-1" d="M499.78,158.02l8.86-12.77c4.63,3.5,12.51,5.76,20.2,5.76,8.25,0,12.24-2.26,12.82-5.88,1.39-8.59-31.98-1.47-28.64-22.04,2.22-13.68,16.24-21.36,33.99-21.36,8.48,0,16.64,1.92,21.67,5.09l-8.42,12.89c-5.08-3.5-11.57-4.63-17.22-4.63-8.14,0-12.2,2.71-12.73,5.99-1.45,8.93,31.81,1.81,28.52,22.04-2.26,13.9-16.56,21.25-34.08,21.25-10.74,0-20.47-2.71-24.97-6.33Z"/>
    <path class="cls-1" d="M590.21,141.97c-.37.9-.5,1.7-.63,2.49-.61,3.73,1.08,5.88,5.49,5.88,2.37,0,4.99-.79,7.47-2.15l.56,12.55c-4.85,2.71-10.42,3.62-15.73,3.62-11.3,0-17.96-6.33-16.24-16.96.28-1.7.8-3.5,1.43-5.31l8.84-24.53h-9.38l4.92-13.56h9.38l5.34-14.81h17.63l-5.34,14.81h15.15l-4.92,13.56h-15.15l-8.83,24.42Z"/>
    <path class="cls-1" d="M610.09,155.99l9.75-14.13c6.37,5.31,15.39,8.25,24.77,8.25,10.06,0,16.96-3.5,17.89-9.27,2.06-12.66-38.27-5.88-34.18-31.08,2.64-16.28,18.59-26.79,40.52-26.79,10.63,0,20.07,2.37,26.25,6.78l-9.17,14.02c-5.33-4.07-12.69-6.1-20.49-6.1-10.63,0-17.5,4.07-18.42,9.72-2.22,13,38.21,6.22,34.27,30.52-2.66,16.39-18.84,26.9-40.88,26.9-12.89,0-24.47-3.84-30.33-8.82Z"/>
    <path class="cls-1" d="M802.92,84.32l-28.56,79.13h-17.18l16.9-47.02-36.46,38.66h-8.14l-9.93-39.11-17.2,47.48h-17.18l28.67-79.13h14.92l11.78,49.28,46.66-49.28h15.71Z"/>
    <path class="cls-1" d="M790.14,155.99l9.75-14.13c6.37,5.31,15.39,8.25,24.77,8.25,10.06,0,16.96-3.5,17.89-9.27,2.06-12.66-38.27-5.88-34.18-31.08,2.64-16.28,18.59-26.79,40.52-26.79,10.63,0,20.07,2.37,26.25,6.78l-9.17,14.02c-5.33-4.07-12.69-6.1-20.49-6.1-10.63,0-17.5,4.07-18.42,9.72-2.22,13,38.21,6.22,34.27,30.52-2.66,16.39-18.84,26.9-40.88,26.9-12.89,0-24.47-3.84-30.33-8.82Z"/>
  </g>
</svg>