<?xml version="1.0" encoding="UTF-8"?>
<svg id="Layer_1" data-name="Layer 1" xmlns="http://www.w3.org/2000/svg" viewBox="0 0 500 500">
  <defs>
    <style>
      .cls-1 {
        fill: #33d9ff;
      }

      .cls-2 {
        fill: #fff;
      }

      .cls-3 {
        fill: #167ef9;
      }
    </style>
  </defs>
  <path class="cls-3" d="M356.33,123.45h-42.1l-41.73,46.71c-3,3.35-1.91,7.38,1.99,7.38h33.31c4.52,0,5.03,5.23.83,8.45l-23.97,18.38-63.52,48.72-27.7,21.24,18.98-21.24,36.93-41.34c3-3.35,1.91-7.38-1.99-7.38h-34.25c-3.9,0-4.98-4.03-1.99-7.38l17.39-19.46,48.32-54.09h-87.48c-11.73,0-24.5,9.24-28.52,20.64l-31.15,88.36c-4.02,11.4,2.23,20.64,13.97,20.64h44.99l-24.03,52.63,1.58-.9,76.66-51.74h67.78c11.73,0,24.5-9.24,28.52-20.64l31.15-88.36c4.02-11.4-2.23-20.64-13.97-20.64Z"/>
  <g>
    <path class="cls-1" d="M102.4,339.51c-1.85,11.41-12.84,16.81-26.68,16.81h-27.91l19.29-53.23h25.71c11.48,0,17.17,4.33,15.9,12.17-1.09,6.69-5.71,11.25-11.72,13.61,4.19,1.83,6.27,5.4,5.42,10.65ZM90.18,339.36c.64-3.95-2.23-5.47-7.1-5.47h-14.91l-4.72,13.16h14.53c6.77,0,11.37-2.58,12.2-7.68ZM75.93,312.36l-4.55,12.55h12.55c6.39,0,10.69-2.58,11.49-7.53.57-3.5-2.08-5.02-7.02-5.02h-12.47Z"/>
    <path class="cls-1" d="M108.86,338.6c2.21-13.61,14.21-23.8,28.58-23.8,12.55,0,19.44,7.22,17.63,18.33-2.21,13.61-14.13,23.8-28.58,23.8-12.47,0-19.43-7.3-17.63-18.33ZM142.97,333.66c.9-5.55-1.88-9.05-7.81-9.05-7,0-12.91,5.48-14.2,13.46-.9,5.55,1.95,9.05,7.88,9.05,6.92,0,12.83-5.47,14.13-13.46Z"/>
    <path class="cls-1" d="M158.59,338.6c2.21-13.61,14.21-23.8,28.58-23.8,12.55,0,19.44,7.22,17.63,18.33-2.21,13.61-14.13,23.8-28.58,23.8-12.47,0-19.43-7.3-17.63-18.33ZM192.7,333.66c.9-5.55-1.88-9.05-7.81-9.05-7,0-12.91,5.48-14.2,13.46-.9,5.55,1.95,9.05,7.88,9.05,6.92,0,12.83-5.47,14.13-13.46Z"/>
    <path class="cls-1" d="M202.69,352.67l5.96-8.59c3.12,2.36,8.42,3.88,13.59,3.88,5.55,0,8.23-1.52,8.63-3.95.94-5.78-21.51-.99-19.27-14.83,1.49-9.2,10.93-14.37,22.87-14.37,5.7,0,11.2,1.29,14.58,3.42l-5.67,8.67c-3.42-2.36-7.78-3.12-11.59-3.12-5.48,0-8.21,1.83-8.56,4.03-.98,6.01,21.4,1.22,19.19,14.83-1.52,9.35-11.14,14.3-22.93,14.3-7.22,0-13.77-1.83-16.8-4.26Z"/>
    <path class="cls-1" d="M263.53,341.87c-.25.61-.34,1.14-.42,1.67-.41,2.51.73,3.96,3.69,3.96,1.6,0,3.36-.53,5.03-1.45l.38,8.44c-3.26,1.83-7.01,2.43-10.59,2.43-7.6,0-12.08-4.26-10.92-11.41.19-1.14.54-2.36.96-3.57l5.95-16.5h-6.31l3.31-9.12h6.31l3.6-9.96h11.86l-3.59,9.96h10.19l-3.31,9.12h-10.19l-5.94,16.43Z"/>
    <path class="cls-2" d="M276.9,351.3l6.56-9.5c4.29,3.57,10.35,5.55,16.67,5.55,6.77,0,11.41-2.36,12.04-6.24,1.38-8.52-25.75-3.95-22.99-20.91,1.78-10.95,12.51-18.02,27.26-18.02,7.15,0,13.51,1.6,17.66,4.56l-6.17,9.43c-3.58-2.74-8.53-4.11-13.78-4.11-7.15,0-11.78,2.74-12.39,6.54-1.5,8.75,25.71,4.18,23.05,20.53-1.79,11.03-12.67,18.1-27.5,18.1-8.67,0-16.46-2.59-20.41-5.93Z"/>
    <path class="cls-2" d="M406.64,303.09l-19.21,53.23h-11.56l11.37-31.63-24.53,26.01h-5.47l-6.68-26.31-11.58,31.94h-11.56l19.29-53.23h10.04l7.92,33.16,31.39-33.16h10.57Z"/>
    <path class="cls-2" d="M398.04,351.3l6.56-9.5c4.29,3.57,10.35,5.55,16.67,5.55,6.77,0,11.41-2.36,12.04-6.24,1.38-8.52-25.75-3.95-22.99-20.91,1.78-10.95,12.51-18.02,27.26-18.02,7.15,0,13.51,1.6,17.66,4.56l-6.17,9.43c-3.58-2.74-8.53-4.11-13.78-4.11-7.15,0-11.78,2.74-12.39,6.54-1.5,8.75,25.71,4.18,23.05,20.53-1.79,11.03-12.67,18.1-27.5,18.1-8.67,0-16.46-2.59-20.41-5.93Z"/>
  </g>
</svg>